<svg width="180" height="34" viewBox="0 0 180 34" fill="none" xmlns="http://www.w3.org/2000/svg">
<g clip-path="url(#clip0_1_2)">
<path d="M64.19 6.055V9.837C63.05 8.479 61.852 7.507 60.616 6.923C59.381 6.329 58.051 6.036 56.626 6.036C54.91 6.036 53.278 6.479 51.722 7.366C50.204 8.22271 48.9462 9.47429 48.082 10.988C47.214 12.4861 46.7614 14.1886 46.771 15.92C46.771 17.684 47.195 19.306 48.035 20.778C48.874 22.248 50.072 23.418 51.619 24.296C53.165 25.163 54.816 25.606 56.57 25.606C58.07 25.606 59.484 25.296 60.814 24.673C62.1385 24.056 63.2987 23.135 64.2 21.985V22.965C64.2 25.069 63.823 26.135 63.332 27.078C62.842 28.021 62.022 28.804 60.871 29.426C59.721 30.049 58.305 30.36 56.636 30.36C54.938 30.36 53.514 30.058 52.373 29.445C51.223 28.841 50.289 27.898 49.563 26.644H46.875C47.563 28.144 48.318 29.284 49.138 30.068C49.958 30.85 51.015 31.473 52.316 31.935C53.618 32.397 54.938 32.633 56.58 32.633C58.815 32.633 60.72 32.161 62.314 31.218C63.908 30.275 65.172 28.917 65.813 27.172C66.275 25.937 66.653 24.428 66.653 21.749V6.055H64.19ZM61.842 21.051C60.465 22.409 58.654 23.088 56.4 23.088C54.165 23.088 52.354 22.409 50.949 21.042C49.544 19.674 48.846 17.939 48.846 15.854C48.846 14.477 49.186 13.194 49.864 12.006C50.5238 10.8385 51.493 9.87581 52.665 9.224C53.8468 8.55413 55.1836 8.20588 56.542 8.214C57.872 8.214 59.117 8.544 60.277 9.196C61.4061 9.81594 62.3351 10.7449 62.955 11.874C63.587 13.006 63.898 14.477 63.898 15.92C63.898 18.108 63.21 19.693 61.842 21.051ZM88.156 9.215C86.223 7.092 83.789 6.027 80.846 6.027C77.895 6.027 75.452 7.092 73.528 9.233C71.774 11.176 70.897 13.459 70.897 16.1C70.897 18.769 71.821 21.098 73.679 23.088C75.537 25.078 77.923 26.078 80.847 26.078C83.761 26.078 86.147 25.078 88.005 23.088C89.863 21.098 90.788 18.768 90.788 16.1C90.788 13.45 89.91 11.157 88.156 9.215ZM87.298 20.014C86.628 21.202 85.723 22.126 84.591 22.777C83.459 23.427 82.205 23.748 80.847 23.748C79.489 23.748 78.234 23.428 77.102 22.777C75.962 22.127 75.065 21.211 74.396 20.014C73.7316 18.8373 73.3869 17.5072 73.396 16.156C73.396 14.016 74.132 12.195 75.593 10.686C77.055 9.176 78.81 8.422 80.856 8.422C82.884 8.422 84.638 9.177 86.11 10.686C87.58 12.195 88.316 14.016 88.316 16.156C88.298 17.533 87.968 18.826 87.298 20.014ZM95.117 6.055H97.625V9.337C98.38 8.234 99.163 7.413 99.993 6.876C100.823 6.329 101.69 6.055 102.586 6.055C103.266 6.055 103.992 6.272 104.765 6.705L103.482 8.771C102.964 8.545 102.53 8.441 102.181 8.441C101.361 8.441 100.577 8.781 99.813 9.451C99.059 10.12 98.474 11.167 98.078 12.581C97.776 13.666 97.616 15.864 97.616 19.174V26.097H95.107V6.055H95.117ZM109 6.027H111.49V27.974C111.49 29.577 111.207 30.737 110.622 31.473C110.047 32.199 109.254 32.567 108.245 32.567C107.415 32.567 106.482 32.369 105.445 31.973V29.766C106.095 30.106 106.689 30.276 107.217 30.276C107.877 30.276 108.377 30.002 108.707 29.455C108.905 29.105 109 28.379 109 27.266V6.027ZM110.264 0C110.726 0 111.112 0.16 111.442 0.49C111.763 0.82 111.924 1.217 111.924 1.67C111.924 2.122 111.764 2.509 111.442 2.839C111.122 3.169 110.726 3.329 110.264 3.329C110.044 3.33399 109.825 3.29298 109.622 3.2086C109.419 3.12422 109.236 2.99833 109.084 2.839C108.929 2.68623 108.807 2.50389 108.725 2.30287C108.642 2.10185 108.601 1.88627 108.604 1.669C108.604 1.207 108.764 0.811 109.084 0.49C109.405 0.16 109.792 0 110.264 0ZM133.182 6.027V10.017C132.22 8.687 131.117 7.687 129.843 7.017C128.57 6.347 127.155 6.017 125.59 6.017C122.873 6.017 120.553 6.998 118.63 8.941C116.705 10.893 115.734 13.241 115.734 15.986C115.734 18.788 116.686 21.174 118.601 23.126C120.516 25.088 122.817 26.059 125.514 26.059C127.033 26.059 128.438 25.739 129.711 25.116C130.985 24.484 132.145 23.541 133.173 22.296V26.078H135.597V6.027H133.182ZM132.362 20.051C131.709 21.207 130.749 22.1601 129.589 22.805C128.381 23.485 127.118 23.824 125.769 23.824C124.453 23.8295 123.161 23.4739 122.034 22.796C120.874 22.116 119.95 21.155 119.261 19.938C118.573 18.712 118.233 17.429 118.233 16.081C118.233 14.732 118.573 13.44 119.261 12.233C119.941 11.016 120.865 10.073 122.015 9.403C123.163 8.73431 124.469 8.38585 125.797 8.394C127.919 8.394 129.711 9.139 131.164 10.62C132.616 12.1 133.342 13.95 133.342 16.156C133.342 17.599 133.012 18.901 132.362 20.051ZM139.926 6.027H142.378V9.93C143.358 8.62 144.443 7.639 145.641 6.997C146.829 6.347 148.131 6.026 149.536 6.026C150.96 6.026 152.224 6.394 153.337 7.11C154.425 7.81842 155.276 8.83695 155.78 10.034C156.308 11.26 156.572 13.174 156.572 15.768V26.087H154.12V16.495C154.12 14.297 154.026 12.835 153.846 12.09C153.564 10.826 153.016 9.883 152.215 9.242C151.404 8.61 150.357 8.289 149.055 8.289C147.565 8.289 146.235 8.779 145.065 9.761C143.887 10.741 143.113 11.958 142.745 13.411C142.51 14.354 142.397 16.089 142.397 18.598V26.096H139.944V6.027H139.926ZM177.586 6.027V10.017C176.624 8.687 175.511 7.687 174.246 7.017C172.974 6.347 171.559 6.017 169.993 6.017C167.277 6.017 164.957 6.998 163.033 8.941C161.109 10.893 160.147 13.241 160.147 15.986C160.147 18.788 161.099 21.174 163.014 23.126C164.928 25.088 167.23 26.059 169.927 26.059C171.446 26.059 172.851 25.739 174.124 25.116C175.407 24.484 176.558 23.541 177.586 22.296V26.078H180V6.027H177.586ZM176.774 20.051C176.121 21.2068 175.162 22.1599 174.002 22.805C172.794 23.485 171.522 23.824 170.182 23.824C168.852 23.824 167.607 23.484 166.438 22.796C165.278 22.116 164.353 21.155 163.665 19.938C162.992 18.7658 162.637 17.438 162.635 16.0863C162.633 14.7346 162.985 13.4059 163.655 12.232C164.297 11.062 165.243 10.0875 166.394 9.41167C167.545 8.73582 168.857 8.38383 170.191 8.393C172.313 8.394 174.105 9.139 175.558 10.62C177.01 12.1 177.736 13.95 177.736 16.156C177.746 17.599 177.426 18.901 176.774 20.051ZM18.891 17.911C18.042 17.081 17.627 15.977 17.627 14.619C17.627 13.732 17.826 12.94 18.212 12.252C18.5956 11.5596 19.1678 10.9903 19.862 10.61C20.5624 10.2088 21.3568 10.0007 22.164 10.007C23.022 10.007 23.814 10.214 24.55 10.629C25.2741 11.0293 25.8719 11.624 26.276 12.346C26.691 13.072 26.899 13.864 26.899 14.713C26.899 16.005 26.465 17.062 25.606 17.91C24.748 18.75 23.626 19.174 22.249 19.174C20.853 19.164 19.74 18.751 18.891 17.911ZM15.024 12.251C15.411 12.949 15.609 13.732 15.609 14.619C15.609 15.977 15.185 17.071 14.345 17.91C13.496 18.75 12.384 19.165 10.997 19.165C9.62 19.165 8.507 18.74 7.64 17.901C6.772 17.061 6.347 15.996 6.347 14.704C6.347 13.854 6.555 13.063 6.97 12.336C7.37695 11.6164 7.97409 11.0228 8.696 10.62C9.42294 10.2067 10.2458 9.99184 11.082 9.997C11.902 9.997 12.666 10.195 13.383 10.601C14.0689 10.9928 14.6359 11.563 15.024 12.251ZM16.618 0.246C7.441 0.245 0 7.687 0 16.864C0 26.04 7.441 33.482 16.618 33.482C25.795 33.482 33.237 26.04 33.237 16.864C33.227 7.687 25.795 0.245 16.618 0.245V0.246ZM18.156 21.769C18.457 22.354 18.966 22.835 19.674 23.212C20.381 23.599 21.249 23.787 22.287 23.787C23.334 23.787 24.211 23.599 24.909 23.231C25.616 22.854 26.191 22.278 26.635 21.505H28.275C27.851 22.429 27.389 23.127 26.88 23.608C26.38 24.089 25.72 24.466 24.918 24.758C24.116 25.042 23.211 25.183 22.202 25.183C20.825 25.183 19.655 24.891 18.674 24.306C17.694 23.721 16.996 22.863 16.599 21.778C16.599 21.798 16.599 21.788 16.599 21.778C16.203 22.854 15.515 23.721 14.534 24.297C13.554 24.881 12.384 25.174 11.007 25.174C9.997 25.174 9.092 25.032 8.29 24.749C7.489 24.466 6.838 24.079 6.329 23.599C5.829 23.118 5.357 22.419 4.933 21.495H6.573C7.017 22.269 7.593 22.845 8.3 23.221C9.007 23.599 9.884 23.778 10.922 23.778C11.95 23.778 12.817 23.589 13.534 23.202C14.242 22.816 14.751 22.335 15.053 21.759C15.354 21.175 15.505 20.241 15.505 18.949V18.345C14.9497 19.0537 14.236 19.6223 13.421 20.005C12.604 20.3899 11.7111 20.5868 10.808 20.581C9.73984 20.5859 8.68926 20.3093 7.762 19.779C6.81 19.241 6.074 18.524 5.555 17.619C5.036 16.714 4.782 15.714 4.782 14.629C4.782 13.545 5.055 12.526 5.592 11.592C6.12212 10.6579 6.89918 9.88775 7.838 9.366C8.75341 8.8297 9.79506 8.54668 10.856 8.546C11.733 8.546 12.553 8.726 13.317 9.093C14.081 9.451 14.807 10.055 15.515 10.885V8.847H17.684V10.884C18.391 10.054 19.118 9.45 19.882 9.092C20.6468 8.72485 21.4856 8.53773 22.334 8.545C23.39 8.545 24.399 8.818 25.352 9.365C26.2823 9.89245 27.0557 10.6578 27.5927 11.5827C28.1297 12.5075 28.4111 13.5586 28.408 14.628C28.408 15.713 28.153 16.713 27.634 17.618C27.1131 18.5289 26.3489 19.2768 25.427 19.778C24.4997 20.3083 23.4492 20.5849 22.381 20.58C21.4779 20.5858 20.585 20.3889 19.768 20.004C18.9511 19.6244 18.2366 19.0553 17.684 18.344V18.948C17.703 20.249 17.854 21.194 18.156 21.769Z" fill="#CFB08D"/>
</g>
<defs>
<clipPath id="clip0_1_2">
<rect width="180" height="33.482" fill="white"/>
</clipPath>
</defs>
</svg>
